<svg width="69" height="70" xmlns="http://www.w3.org/2000/svg" xmlns:xlink="http://www.w3.org/1999/xlink" xml:space="preserve" overflow="hidden"><g transform="translate(-674 -843)"><path d="M57.5 11.6438C57.5 14.4224 55.2474 16.675 52.4688 16.675 49.6901 16.675 47.4375 14.4224 47.4375 11.6438 47.4375 8.86507 49.6901 6.6125 52.4688 6.6125 55.2474 6.6125 57.5 8.86507 57.5 11.6438Z" fill="#745CFF" transform="matrix(1 0 0 1.01449 674 843)"/><path d="M21.5625 11.6438C21.5625 14.4224 19.3099 16.675 16.5312 16.675 13.7526 16.675 11.5 14.4224 11.5 11.6438 11.5 8.86507 13.7526 6.6125 16.5312 6.6125 19.3099 6.6125 21.5625 8.86507 21.5625 11.6438Z" fill="#745CFF" transform="matrix(1 0 0 1.01449 674 843)"/><path d="M39.5312 11.6438C39.5312 14.4224 37.2787 16.675 34.5 16.675 31.7213 16.675 29.4688 14.4224 29.4688 11.6438 29.4688 8.86507 31.7213 6.6125 34.5 6.6125 37.2787 6.6125 39.5312 8.86507 39.5312 11.6438Z" fill="#745CFF" transform="matrix(1 0 0 1.01449 674 843)"/><path d="M47.2938 35.075 44.0594 23.1438C43.9156 22.7125 43.7 22.2812 43.4125 21.9937 42.0469 20.5562 40.3219 19.4781 38.4531 18.8313 37.2313 18.4 35.9375 18.1844 34.5719 18.1844 33.2062 18.1844 31.9125 18.4 30.6906 18.8313 28.75 19.4781 27.0969 20.5562 25.7312 21.9937 25.4438 22.3531 25.2281 22.7125 25.0844 23.1438L21.85 35.075C21.5625 36.225 22.1375 37.5187 23.3594 37.8062 23.575 37.8781 23.7188 37.8781 23.9344 37.8781 24.8687 37.8781 25.7312 37.2313 26.0188 36.2969L28.8938 25.8031 28.8938 62.3875 33.2062 62.3875 33.2062 41.8312 36.0812 41.8312 36.0812 62.3156 40.3937 62.3156 40.3937 25.8031 43.2687 36.2969C43.5562 37.2313 44.4188 37.8781 45.3531 37.8781 45.5688 37.8781 45.7125 37.8781 45.9281 37.8062 46.9344 37.5187 47.5812 36.225 47.2938 35.075Z" fill="#745CFF" transform="matrix(1 0 0 1.01449 674 843)"/><path d="M20.3406 34.7156 23.575 22.7844C23.7188 22.1375 24.0781 21.5625 24.4375 21.0594 23.2875 20.0531 21.85 19.2625 20.3406 18.7594 19.1187 18.3281 17.825 18.1125 16.4594 18.1125 15.0938 18.1125 13.8 18.3281 12.5781 18.7594 10.6375 19.4062 8.98438 20.4844 7.61875 21.9219 7.33125 22.2812 7.11562 22.6406 6.97187 23.0719L3.7375 35.075C3.45 36.225 4.025 37.5187 5.24688 37.8062 5.4625 37.8781 5.60625 37.8781 5.82188 37.8781 6.75625 37.8781 7.61875 37.2313 7.90625 36.2969L10.7812 25.8031 10.7812 62.3875 15.0938 62.3875 15.0938 41.8312 17.9688 41.8312 17.9688 62.3156 22.2812 62.3156 22.2812 39.0281C20.7719 38.3094 19.9094 36.5125 20.3406 34.7156Z" fill="#745CFF" transform="matrix(1 0 0 1.01449 674 843)"/><path d="M65.2625 35.075 61.9562 23.1438C61.8125 22.7125 61.5969 22.2812 61.3094 21.9937 59.9438 20.5562 58.2188 19.4781 56.35 18.8313 55.1281 18.4 53.8344 18.1844 52.4688 18.1844 51.1031 18.1844 49.8094 18.4 48.5875 18.8313 47.0781 19.3344 45.7125 20.125 44.4906 21.1313 44.9219 21.6344 45.2094 22.2094 45.3531 22.7844L48.5875 34.7156C49.0906 36.5125 48.1562 38.3094 46.6469 39.0281L46.6469 62.3875 50.9594 62.3875 50.9594 41.8312 53.8344 41.8312 53.8344 62.3156 58.1469 62.3156 58.1469 25.8031 61.0219 36.2969C61.3094 37.2313 62.1719 37.8781 63.1063 37.8781 63.3219 37.8781 63.4656 37.8781 63.6812 37.8062 64.9031 37.5187 65.55 36.225 65.2625 35.075Z" fill="#745CFF" transform="matrix(1 0 0 1.01449 674 843)"/></g></svg>