<svg width="81" height="80" xmlns="http://www.w3.org/2000/svg" xmlns:xlink="http://www.w3.org/1999/xlink" xml:space="preserve" overflow="hidden"><g transform="translate(-383 -837)"><path d="M40.9583 30.9417 40.9583 30.9417 45.65 32.8833C45.8176 29.8043 48.4495 27.4442 51.5286 27.6118 53.6735 27.7285 55.5612 29.0654 56.3833 31.05 57.1787 33.037 56.8029 35.3014 55.4083 36.925L61.0583 39.2667 61.1583 39.3083 69.4833 19.1667 49.2833 10.8333 46.1417 18.5583 46.1417 18.5583 45.9 19.1333 45.8333 18.8667C44.9161 16.6635 42.3902 15.6166 40.1833 16.525 39.2158 16.9428 38.4275 17.6897 37.9583 18.6333 37.178 20.886 38.3715 23.3448 40.6242 24.1252 41.6234 24.4713 42.7149 24.4387 43.6917 24.0333L43.9583 23.925 43.8 24.3083 43.8 24.3083Z" fill="#745CFF" transform="matrix(1.0125 0 0 1 383 837)"/><path d="M38.85 60.5C41.0347 59.7771 42.2197 57.42 41.4968 55.2353 40.7739 53.0507 38.4168 51.8657 36.2322 52.5885 35.4022 52.8632 34.6795 53.3919 34.1667 54.1L34.1667 46.6 29.1083 46.6C29.1449 46.8763 29.1644 47.1546 29.1667 47.4333 29.1667 51.1152 26.1819 54.1 22.5 54.1 18.8181 54.1 15.8333 51.1152 15.8333 47.4333 15.8356 47.1546 15.8551 46.8763 15.8917 46.6L10.8333 46.6 10.8333 68.2667 34.1667 68.2667 34.1667 59.1C34.2596 59.2279 34.3597 59.3503 34.4667 59.4667 34.5116 59.5521 34.5646 59.633 34.625 59.7083 35.61 60.6516 37.0147 61.0147 38.3333 60.6667 38.475 60.6667 38.6083 60.5833 38.7417 60.5417Z" fill="#745CFF" transform="matrix(1.0125 0 0 1 383 837)"/><path d="M49.1667 46.5833C49.296 46.4893 49.4185 46.3862 49.5333 46.275 49.6243 46.2402 49.7068 46.1862 49.775 46.1167 50.7993 45.0189 51.1385 43.4476 50.6583 42.025L50.6583 41.9C49.884 39.733 47.4996 38.6041 45.3326 39.3784 43.1656 40.1527 42.0367 42.5372 42.811 44.7042 43.0761 45.4462 43.5462 46.0977 44.1667 46.5833L36.6667 46.5833 36.6667 50C36.9432 49.9665 37.2215 49.9498 37.5 49.95 41.1819 49.95 44.1667 52.9347 44.1667 56.6167 44.1667 60.2986 41.1819 63.2833 37.5 63.2833 37.2213 63.2807 36.943 63.2613 36.6667 63.225L36.6667 68.25 58.3333 68.25 58.3333 46.5833Z" fill="#745CFF" transform="matrix(1.0125 0 0 1 383 837)"/><path d="M34.1667 29.4 34.1667 20.75 10.8333 20.75 10.8333 44.0833 20 44.0833C18.9508 44.8702 18.3333 46.1052 18.3333 47.4167 18.3333 49.7178 20.1988 51.5833 22.5 51.5833 24.8012 51.5833 26.6667 49.7178 26.6667 47.4167 26.6667 46.1052 26.0492 44.8702 25 44.0833L34.1667 44.0833 34.1667 35.5167C32.3744 37.1984 29.5839 37.1984 27.7917 35.5167 26.1026 33.867 26.0707 31.1604 27.7203 29.4713 27.7438 29.4473 27.7676 29.4235 27.7917 29.4 29.5839 27.7183 32.3744 27.7183 34.1667 29.4Z" fill="#745CFF" transform="matrix(1.0125 0 0 1 383 837)"/></g></svg>