<svg width="87" height="83" xmlns="http://www.w3.org/2000/svg" xmlns:xlink="http://www.w3.org/1999/xlink" xml:space="preserve" overflow="hidden"><g transform="translate(-231 -837)"><path d="M42.9698 30.6063 62.5958 22.3927 59.3104 14.4385 14.1792 33.1135 17.4646 41.0677 37.8687 32.5948 22.9979 68.475C22.6521 69.3396 23.0844 70.3771 23.949 70.7229 24.2083 70.8958 24.3813 70.8958 24.6406 70.8958 25.3323 70.8958 25.9375 70.4635 26.1969 69.8583L33.6323 51.875 39.0792 51.875 39.0792 72.625C39.0792 73.576 39.8573 74.3542 40.8083 74.3542 41.7594 74.3542 42.5375 73.576 42.5375 72.625L42.5375 51.875 47.9844 51.875 55.4198 69.8583C55.6792 70.55 56.3708 70.8958 56.976 70.8958 57.2354 70.8958 57.4083 70.8958 57.6677 70.7229 58.5323 70.3771 58.9646 69.3396 58.6188 68.475L42.9698 30.6063ZM35.1021 48.4167 39.0792 38.7333 39.0792 48.4167 35.1021 48.4167ZM42.5375 48.4167 42.5375 38.7333 46.601 48.4167 42.5375 48.4167Z" fill="#745CFF" transform="matrix(1.04819 0 0 1 231 837)"/><path d="M9.23082 37.5329 12.7141 37.5329 12.7141 41.3645 9.23082 41.3645Z" fill="#745CFF" transform="matrix(-0.398265 -0.91727 0.961476 -0.379954 208.826 901.211)"/><path d="M69.9448 8.21354 61.7313 11.4125 66.4 22.6521 74.5271 19.3667Z" fill="#745CFF" transform="matrix(1.04819 0 0 1 231 837)"/></g></svg>