<svg xmlns="http://www.w3.org/2000/svg" viewBox="0 0 1753.59 282.79"><g id="Layer_2" data-name="Layer 2"><g id="standard"><path d="M63,108.11V94c0-15.37-7.06-21.92-15.12-21.92-12.6,0-16.63,6.55-16.63,20.16v92.23c0,13.61,4,20.16,16.63,20.16,11.34,0,15.12-6.55,15.12-18.4V164.31H94.25v20.92c0,25.7-15.12,46.62-46.37,46.62C15.12,231.85,0,210.93,0,185.23V91.48c0-25.7,15.12-46.62,47.88-46.62,31.25,0,46.37,22.68,46.37,49.9v13.35Z" fill="#fff"/><path d="M130,229.33H99.78l33.52-182h38.81l33.51,182H175.38L169.84,189H135.57Zm10.08-67.54h25.2L153,83.67h-.51Z" fill="#fff"/><path d="M343,47.38v182H315.75V87.2h-.5L287,229.33H271.9L243.68,87.2h-.5V229.33H216v-182H257l22.17,106.35h.51L301.89,47.38Z" fill="#fff"/><path d="M361.61,47.38H408c33.52,0,48.39,17.14,48.39,48.13,0,15.63-6.56,32-21.68,38.06,15.88,7.05,25.2,19.65,25.2,43.09,0,30-13.35,52.67-48.88,52.67h-49.4ZM392.86,122H404.2c11.85,0,20.92-8.06,20.92-23.18,0-16.88-6.55-25.7-20.41-25.7H392.86Zm0,81.65H406c16.63,0,22.68-9.57,22.68-28,0-18.65-7.06-28-25.71-28H392.86Z" fill="#fff"/><path d="M504.74,229.33H473.49v-182h43.85c35,0,52.92,14.87,52.92,53.68,0,29.23-11.34,41.07-21.92,45.86l26.46,82.41H543.05L520.87,154a151.84,151.84,0,0,1-16.13.75Zm0-100.3h11.09c16.88,0,23.18-6.3,23.18-28s-6.3-28-23.18-28H504.74Z" fill="#fff"/><path d="M586.66,229.33v-182h31.25v182Z" fill="#fff"/><path d="M637.31,47.38h46.37c32.25,0,49.39,17.64,49.39,54.94v72.07c0,37.3-17.14,54.94-49.39,54.94H637.31Zm31.25,156.24h10.83c16.64,0,22.43-6.3,22.43-25.45V98.54c0-19.15-5.79-25.45-22.43-25.45H668.56Z" fill="#fff"/><path d="M791.28,137.09h51.16v92.24H827.32l-5.8-13.61c-9.32,11.09-16.88,16.13-31.5,16.13-24.69,0-41.83-17.64-41.83-46.62V91.48c0-25.7,15.12-46.62,45.86-46.62,31.25,0,46.88,22.68,46.88,49.9v11.59H811.19c0-27.22-5.54-34.27-17.89-34.27-7.56,0-13.86,4.53-13.86,19.91v93.49c0,11.59,3.78,19.15,14.61,19.15,12.6,0,17.14-7.06,17.14-25.2V161.79H791.28Z" fill="#fff"/><path d="M860.07,229.33v-182h83.66V74.6H891.32v46.87h40.32v27.22H891.32v53.42h55.94v27.22Z" fill="#fff"/><path d="M1632.43,152.74a13.73,13.73,0,0,0-2.45,4.15,13,13,0,0,0-.69,4.27q0,3.27,1.63,4.71a7.17,7.17,0,0,0,4.9,1.45,8.3,8.3,0,0,0,5.28-1.89,20.42,20.42,0,0,0,4.15-4.4V143.31q-4.77,2.77-7.92,5A26.31,26.31,0,0,0,1632.43,152.74ZM1612.2,0a141.4,141.4,0,1,0,141.39,141.4A141.4,141.4,0,0,0,1612.2,0Zm-56.59,177.62h-14.83V162.79h14.83Zm36.21-54.73a7.76,7.76,0,0,0-11.56,0q-2,2.58-2,8.48v24.89q0,5.91,2,8.48a7.76,7.76,0,0,0,11.56,0q2-2.56,2-8.48V152h14.08v1.76a43.3,43.3,0,0,1-1.13,10.18,20.5,20.5,0,0,1-3.77,8,17.44,17.44,0,0,1-6.79,5.15,29.38,29.38,0,0,1-20.36,0,17.44,17.44,0,0,1-6.79-5.15,20.5,20.5,0,0,1-3.77-8,43.3,43.3,0,0,1-1.13-10.18V133.89a43.24,43.24,0,0,1,1.13-10.18,20.5,20.5,0,0,1,3.77-8,17.56,17.56,0,0,1,6.79-5.16,25.39,25.39,0,0,1,10.18-1.82,25.72,25.72,0,0,1,10,1.76,17,17,0,0,1,6.73,5,20.64,20.64,0,0,1,3.77,7.72,43.51,43.51,0,0,1,1.32,9.93h-14.08v-1.76Q1593.83,125.48,1591.82,122.89Zm54.94,54.73c-.09-.92-.21-1.82-.38-2.7s-.29-1.74-.37-2.57a35.46,35.46,0,0,1-7.67,4.9,21.44,21.44,0,0,1-8.8,1.63q-7.17,0-10.74-4.33a16.53,16.53,0,0,1-3.59-10.88,25.61,25.61,0,0,1,1.83-9.92,23.66,23.66,0,0,1,5.59-8.05,43,43,0,0,1,9.42-6.72,111.06,111.06,0,0,1,13.2-6v-4q0-8.69-6.91-8.68c-3.19,0-5.28.86-6.29,2.58a15.58,15.58,0,0,0-1.75,7h-14.08q.63-10.31,6.66-15.71t16-5.41q9.81,0,15.15,4.53t5.34,13.82v43.36a21.43,21.43,0,0,0,.31,3.52c.21,1.26.4,2.47.57,3.64Z" fill="#fed204"/><path d="M995,74.36H964.73V47.15h91.69V74.36h-30.23V229H995Z" fill="#fff"/><path d="M1062.73,91.23c0-25.69,15.12-46.6,47.87-46.6s47.86,20.91,47.86,46.6V185c0,25.69-15.12,46.6-47.86,46.6s-47.87-20.91-47.87-46.6Zm31.24,93c0,13.6,4,20.15,16.63,20.15s16.62-6.55,16.62-20.15V92c0-13.6-4-20.15-16.62-20.15S1094,78.39,1094,92Z" fill="#fff"/><path d="M1175.61,47.15H1222c32.25,0,49.38,17.63,49.38,54.92v72c0,37.29-17.13,54.92-49.38,54.92h-46.35Zm31.24,156.18h10.83c16.62,0,22.42-6.29,22.42-25.44V98.29c0-19.15-5.8-25.44-22.42-25.44h-10.83Z" fill="#fff"/><path d="M1306.62,229H1276.4l33.5-181.88h38.79L1382.2,229H1352l-5.54-40.31h-34.26Zm10.08-67.51h25.19l-12.34-78.09H1329Z" fill="#fff"/><path d="M1433.83,229h-31.24V153.46L1364.81,47.15h31.74l21.91,69.28h.51l20.9-69.28h31.75l-37.79,106.31Z" fill="#fff"/></g></g></svg>