<svg width="80" height="80" xmlns="http://www.w3.org/2000/svg" xmlns:xlink="http://www.w3.org/1999/xlink" xml:space="preserve" overflow="hidden"><g transform="translate(-529 -837)"><path d="M587.49 886.592C582.74 885.383 578.648 882.508 573.633 876.693L573.466 876.496 573.623 876.314C578.468 870.724 582.708 867 587.643 867 590.692 866.996 593.565 868.424 595.402 870.856L590.521 873.674 602.932 877 606.258 864.583 601.195 867.507C598.146 863.017 593.07 860.33 587.643 860.333 579.583 860.333 573.689 866.059 568.583 871.947 563.474 866.053 557.583 860.333 549.523 860.333 540.563 860.269 533.247 867.481 533.183 876.441 533.119 885.401 540.331 892.717 549.291 892.781 549.368 892.781 549.446 892.781 549.523 892.781 557.557 892.781 563.253 887.214 568.583 881.046 573.869 887.176 579.609 892.129 587.643 892.781 596.666 893.511 603.047 886.397 603.106 880.986 603.106 880.979 603.1 880.974 603.094 880.974 603.089 880.974 603.085 880.977 603.083 880.982 601.802 884.875 594.014 888.25 587.49 886.592ZM563.539 876.687C558.379 882.657 554.432 886.114 549.523 886.114 544.245 886.2 539.897 881.99 539.812 876.712 539.726 871.433 543.936 867.085 549.214 867 549.317 866.998 549.42 866.998 549.523 867 554.461 867 558.7 870.723 563.546 876.314L563.704 876.496Z" fill="#745CFF"/></g></svg>